<svg xmlns="http://www.w3.org/2000/svg" viewBox="0 0 52 52">
  <defs>
    <linearGradient id="g" x1="0" y1="0" x2="52" y2="52" gradientUnits="userSpaceOnUse">
      <stop offset="0%" stop-color="#C9982A"/>
      <stop offset="100%" stop-color="#E8C060"/>
    </linearGradient>
  </defs>
  <rect width="52" height="52" rx="14" fill="url(#g)"/>
  <path d="M10 15 C10 13 12 12 15 12 L26 12 C29 12 30.5 13 30.5 15 C30.5 17 29 18.5 26 19 L15 21.5 C12 22 10 24 10 26.5 C10 29 12 30.5 15 30.5 L30.5 30.5"
    fill="none" stroke="white" stroke-width="2.6" stroke-linecap="round"/>
  <path d="M30.5 30.5 C33 30.5 34.5 32 34.5 34 C34.5 36 33 37.5 30.5 37.5 L15 37.5 C12 37.5 10 36 10 34"
    fill="none" stroke="white" stroke-width="2.6" stroke-linecap="round"/>
  <line x1="39" y1="12" x2="39" y2="37.5" stroke="white" stroke-width="2.6" stroke-linecap="round"/>
  <path d="M39 25 L49 12" fill="none" stroke="white" stroke-width="2.6" stroke-linecap="round"/>
  <path d="M39 25 L49 37.5" fill="none" stroke="white" stroke-width="2.6" stroke-linecap="round"/>
  <circle cx="46" cy="45" r="1.8" fill="white" opacity="0.55"/>
</svg>
